<svg xmlns="http://www.w3.org/2000/svg" xmlns:xlink="http://www.w3.org/1999/xlink" version="1.1" x="0px" y="0px" viewBox="0 0 100 125" enable-background="new 0 0 100 100" xml:space="preserve"><path d="M74.681,79.083c-4.612,0-9.051-1.306-12.926-3.791c-3.43,2.454-7.566,3.791-11.806,3.791c-7.109,0-13.713-3.789-17.365-9.81  c-2.301,1.096-4.811,1.668-7.367,1.668c-9.475,0-17.183-7.709-17.183-17.185c0-7.059,4.323-13.326,10.744-15.916  c-0.897-2.809-1.352-5.712-1.352-8.656c0-15.776,12.835-28.611,28.611-28.611c8.155,0,15.789,3.422,21.222,9.453  c2.755-1.684,5.881-2.565,9.144-2.565c9.733,0,17.652,7.92,17.652,17.654c0,4.133-1.474,8.136-4.105,11.291  c5.551,4.554,8.803,11.35,8.803,18.605C98.752,68.285,87.954,79.083,74.681,79.083z M61.601,70.28l1.264,0.925  c3.468,2.537,7.554,3.878,11.816,3.878c11.067,0,20.071-9.004,20.071-20.07c0-6.708-3.335-12.946-8.921-16.687l-2.12-1.419  l1.884-1.72c2.835-2.587,4.46-6.258,4.46-10.071c0-7.529-6.124-13.654-13.652-13.654c-3.015,0-5.88,0.976-8.286,2.822l-1.562,1.2  l-1.224-1.544c-4.712-5.952-11.744-9.365-19.293-9.365c-13.571,0-24.611,11.041-24.611,24.611c0,3.134,0.6,6.215,1.782,9.16  l0.845,2.103l-2.192,0.576c-5.786,1.521-9.826,6.757-9.826,12.732c0,7.27,5.914,13.185,13.183,13.185c2.507,0,4.96-0.72,7.094-2.081  l1.917-1.225l0.968,2.059c2.683,5.703,8.474,9.389,14.753,9.389c3.814,0,7.526-1.349,10.45-3.797L61.601,70.28z"/><path d="M27.5,92.859c-4.564,0-8.277-3.713-8.277-8.277s3.713-8.277,8.277-8.277c4.565,0,8.279,3.713,8.279,8.277  S32.065,92.859,27.5,92.859z M27.5,79.305c-2.91,0-5.277,2.367-5.277,5.277s2.367,5.277,5.277,5.277  c2.911,0,5.279-2.367,5.279-5.277S30.411,79.305,27.5,79.305z"/><path d="M11.675,98.5c-3.049,0-5.53-2.48-5.53-5.53s2.48-5.53,5.53-5.53c3.05,0,5.531,2.48,5.531,5.53S14.725,98.5,11.675,98.5z   M11.675,90.439c-1.395,0-2.53,1.135-2.53,2.53s1.135,2.53,2.53,2.53c1.396,0,2.531-1.135,2.531-2.53S13.07,90.439,11.675,90.439z"/></svg>
